#!OML:ASF F:\VICON\USERDATA\INSTALL\rory3\rory3.ASF
:FULLY-SPECIFIED
:DEGREES
45
root 0.8052048258686102 17.92599608253816 24.80066815764156 -3.2894094197958563 0.4253211893687905 0.2412494778443599
lfemur 8.818045864747559 -3.6484669718594587 -23.57970865023023
ltibia 25.910056569825212
lfoot -4.458158354299793 -5.854652604201981
ltoes -13.645741962737628
rfemur -23.44524060695449 -0.2385665974561415 21.11162672455872
rtibia 43.61732516836473
rfoot -8.639024343295633 -5.139795534700619
rtoes 7.679602547392526
lowerback 10.798086872545946 -1.0154241024942383 -1.9593596020343462
upperback -0.011208086161649575 -1.5652179609844976 1.969451872670903
thorax -6.000282089361585 -0.7074703262202195 3.743489680379743
lowerneck -16.634430728789294 -2.9751049930184945 -2.2255054718838876
upperneck 22.475973516192553 -3.748531803335554 0.9102199080909664
head 10.029546580191402 -1.842657830212691 0.19503206483928717
lclavicle -2.5475745038375587e-15 -2.747968987783195e-15
lhumerus -24.942144175908155 -2.6449488245681603 80.94959380590325
lradius 28.542307807580514
lwrist 7.898536260597115
lhand -29.478752935758322 18.997626052468092
lfingers nan
lthumb -2.572717750310511 48.99056967413982
rclavicle -2.651419539332758e-15 -2.797893700271741e-15
rhumerus -38.440578890266195 -24.480952853822743 -76.60448295946323
rradius 30.357068963058705
rwrist -0.2792098189780208
rhand -17.264497756262536 23.364032543045617
rfingers nan
rthumb 8.980386706772945 -6.300050283159673
46
root 0.8674711185776279 17.94635661750297 27.015916032574005 -3.3308784670265994 0.5070668277083259 0.4569982152852514
lfemur 8.397410681612035 -3.805528132674289 -23.671700190095248
ltibia 28.869981091275527
lfoot -3.852795433466489 -5.229745113819522
ltoes -12.399701115449702
rfemur -22.632924441423306 -0.34202786223595716 21.24832338886632
rtibia 40.5687627866497
rfoot -9.19403064552462 -5.622317802158076
rtoes 7.755123783980838
lowerback 10.711032382996747 -1.2061796529609126 -2.127242609971077
upperback -0.010384683181436025 -1.846380653012732 1.9897675263308288
thorax -5.917656639825525 -0.820272016965727 3.900294619005039
lowerneck -16.672348547542846 -2.9809626023696643 -2.215366171473098
upperneck 22.44463989276523 -3.7671122983277785 0.8490734822618026
head 10.015468176882688 -1.8539577549593462 0.17287411654321777
lclavicle -2.5483800568120673e-15 -2.748210647572759e-15
lhumerus -25.56868787669392 -2.7081934514985515 81.22194753665019
lradius 26.610144012696484
lwrist 8.470152299298194
lhand -29.47511791567355 19.033912823293768
lfingers nan
lthumb -2.532928461195456 49.15358835679292
rclavicle -2.650791709371365e-15 -2.796705662564274e-15
rhumerus -38.56899776466315 -25.512192073958516 -75.48574249187674
rradius 30.78986475487529
rwrist 2.4900973444603096
rhand -17.349369831754228 23.731316452630317
rfingers nan
rthumb 8.990693839119167 -5.855824160056514
47
root 0.932848910503453 17.960359957698113 29.483570803782072 -3.3950612483529152 0.5732854162485238 0.29728323885266583
lfemur 7.474679691377952 -3.840626202921906 -23.363958238604717
ltibia 32.83051584489071
lfoot -4.278322692045128 -4.508075683367886
ltoes -10.565926934912879
rfemur -21.921394700744436 -0.25866074777554227 21.82415015561709
rtibia 38.277417270240136
rfoot -10.201528063770926 -6.694576739996581
rtoes 7.543305301879486
lowerback 10.6626767391831 -1.3216196212674287 -1.9423644470114299
upperback -0.02761563106549597 -1.9163336692173687 2.0406672157315313
thorax -5.88894199198966 -0.8496249074230521 3.9045952833221778
lowerneck -16.67653132975112 -2.9789655638078876 -2.195981304966227
upperneck 22.33824342726283 -3.768324491503005 0.8079845636235371
head 9.943788957788076 -1.8630462077971508 0.16279355937995538
lclavicle -2.550702916112479e-15 -2.7493278487337394e-15
lhumerus -26.179369369933475 -2.4331686647651005 81.51754246882358
lradius 24.58319806228398
lwrist 9.043615227954815
lhand -29.445760853960657 18.987517512332367
lfingers nan
lthumb -2.5348453240737863 49.04377646172192
rclavicle -2.6550595832666674e-15 -2.7982931087457397e-15
rhumerus -38.35734660797197 -26.407190948992284 -74.53821764302845
rradius 30.966911812004902
rwrist 5.378497321258177
rhand -17.435137452003964 23.637118731465986
rfingers nan
rthumb 8.904464604451263 -6.074644103916359
48
root 0.9854622239432997 17.964643742463867 31.712000058702408 -3.431283021842679 0.46193628275222 -0.5421249419445737
lfemur 5.946688302238085 -3.647641597880126 -22.21031938493299
ltibia 37.4109384198833
lfoot -3.7899431575203337 -3.9173960268006836
ltoes -10.153078757606758
rfemur -21.27776009322179 0.12262069669018993 23.091635417301347
rtibia 36.8547329271529
rfoot -11.667031090415346 -8.146313407117962
rtoes 7.103808626199456
lowerback 10.627371714511032 -1.3379489519691392 -1.234099540083368
upperback -0.049131277259759285 -1.7716291705740563 2.1973555113234973
thorax -5.933777479865062 -0.8159706918398563 3.695731827392568
lowerneck -16.67710087417933 -2.9846429489836597 -2.1524397377187463
upperneck 22.240285330339873 -3.7847932614399498 0.759331688669677
head 9.874227887498986 -1.876495785290367 0.14436873480079454
lclavicle -2.551987532743433e-15 -2.7503275754153517e-15
lhumerus -26.808737951385133 -1.7828512343312748 81.83476945815946
lradius 22.732081121634288
lwrist 9.460677323180072
lhand -29.52118267948876 18.697893417600504
lfingers nan
lthumb -2.487320211430707 48.99704677533354
rclavicle -2.655188793782399e-15 -2.7986221770229542e-15
rhumerus -37.74977374980858 -26.958385617679312 -73.83691650019078
rradius 30.917146482160955
rwrist 7.110843194564662
rhand -17.46853029022372 23.122730963341436
rfingers nan
rthumb 8.877270744151062 -6.6365938417848644
